<svg width="32" height="32" viewBox="0 0 32 32" fill="none" xmlns="http://www.w3.org/2000/svg">
  <g transform="scale(0.045) translate(-18.802 -64.294)">
    <path d="m486.47 249.44c17.36-18.58-2.61-52.28-1.19-100.23 1.43-47.87 33.75-64.18 33.75-64.18s-10.33 4.037-6.98 27.38c2.84 19.8 9.13 42.82 23.5 55.58 14.79 12.23 39.12 45.62 30.15 63.45 18.09-6.14 46.27 8.4 67.08 27.68 21.72 20.55 35.63 30.45 50.69 35.26 21.63 6.92 37.47 0.82 37.47 0.82-24.75 21.36-72.19 21.67-103.15 15.92-30.29-5.63-47.2-22.11-74.75-15.8-34.98 11.95-92.86 66.09-181.53 77.64s-298.26-20.39-323.39-46.83c-25.136-26.43-2.101-35.33-3.753-34.14-0.224-0.23 6.034 5.98 133.22 37.5-22.82-3.67-138.2-40.99-137.99-42.53 0.324 0.11 51.896-190.66 94.97-211.04 43.07-20.368 140.96 38.97 216.25 82.99 89.27 52.21 125.84 111.73 145.65 90.53z" style="stroke-linejoin:round;stroke:#0F172A;stroke-linecap:round;stroke-width:15;fill:none"/>
    <path d="m220 314.51a13.571 12.143 0 1 1 -27.14 0 13.571 12.143 0 1 1 27.14 0z" transform="matrix(.85895 0 0 .80874 30.239 43.723)" style="stroke-linejoin:round;stroke:#0F172A;stroke-linecap:round;stroke-width:15;fill:#0F172A"/>
  </g>
</svg>
